<svg width="125" height="24" viewBox="0 0 125 24" fill="none" xmlns="http://www.w3.org/2000/svg">
<g clip-path="url(#clip0_1_230)">
<path d="M19 9L20.25 6.25L23 5L20.25 3.75L19 1L17.75 3.75L15 5L17.75 6.25L19 9Z" fill="#464646"/>
<path d="M19 15L17.75 17.75L15 19L17.75 20.25L19 23L20.25 20.25L23 19L20.25 17.75L19 15Z" fill="#464646"/>
<path d="M11.5 9.5L9 4L6.5 9.5L1 12L6.5 14.5L9 20L11.5 14.5L17 12L11.5 9.5ZM9.99 12.99L9 15.17L8.01 12.99L5.83 12L8.01 11.01L9 8.83L9.99 11.01L12.17 12L9.99 12.99Z" fill="#464646"/>
</g>
<path d="M32.608 15.18C32.7467 15.276 32.992 15.3933 33.344 15.532C33.696 15.66 34.112 15.724 34.592 15.724C35.008 15.724 35.3493 15.6547 35.616 15.516C35.8827 15.3667 36.0853 15.148 36.224 14.86C36.3733 14.572 36.4693 14.1987 36.512 13.74C36.5653 13.2813 36.592 12.732 36.592 12.092V6.14H38.8V11.916C38.8 12.7693 38.752 13.548 38.656 14.252C38.56 14.956 38.3733 15.564 38.096 16.076C37.8187 16.588 37.3973 16.9827 36.832 17.26C36.2773 17.5373 35.536 17.676 34.608 17.676C34.096 17.676 33.6373 17.6173 33.232 17.5C32.8267 17.3827 32.4533 17.2067 32.112 16.972L32.608 15.18ZM44.5828 17.66C43.9108 17.66 43.3028 17.548 42.7588 17.324C42.2148 17.0893 41.7508 16.7747 41.3668 16.38C40.9828 15.9747 40.6841 15.516 40.4708 15.004C40.2681 14.4813 40.1668 13.932 40.1668 13.356C40.1668 12.556 40.3428 11.8253 40.6948 11.164C41.0574 10.5027 41.5694 9.97467 42.2308 9.58C42.9028 9.17467 43.6921 8.972 44.5988 8.972C45.5161 8.972 46.3001 9.17467 46.9508 9.58C47.6014 9.97467 48.0974 10.5027 48.4388 11.164C48.7908 11.8147 48.9668 12.5187 48.9668 13.276C48.9668 13.404 48.9614 13.5373 48.9508 13.676C48.9401 13.804 48.9294 13.9107 48.9188 13.996H42.4388C42.4814 14.4227 42.6041 14.796 42.8068 15.116C43.0201 15.436 43.2868 15.6813 43.6068 15.852C43.9374 16.012 44.2894 16.092 44.6628 16.092C45.0894 16.092 45.4894 15.9907 45.8628 15.788C46.2468 15.5747 46.5081 15.2973 46.6468 14.956L48.4868 15.468C48.2841 15.8947 47.9908 16.2733 47.6068 16.604C47.2334 16.9347 46.7908 17.196 46.2788 17.388C45.7668 17.5693 45.2014 17.66 44.5828 17.66ZM42.3908 12.636H46.7748C46.7321 12.2093 46.6094 11.8413 46.4068 11.532C46.2148 11.212 45.9588 10.9667 45.6388 10.796C45.3188 10.6147 44.9614 10.524 44.5668 10.524C44.1828 10.524 43.8308 10.6147 43.5108 10.796C43.2014 10.9667 42.9454 11.212 42.7428 11.532C42.5508 11.8413 42.4334 12.2093 42.3908 12.636ZM49.6969 15.02C49.6969 14.476 49.8462 14.0013 50.1449 13.596C50.4542 13.18 50.8809 12.86 51.4249 12.636C51.9689 12.412 52.5929 12.3 53.2969 12.3C53.6489 12.3 54.0062 12.3267 54.3689 12.38C54.7315 12.4333 55.0462 12.5187 55.3129 12.636V12.188C55.3129 11.6547 55.1529 11.244 54.8329 10.956C54.5235 10.668 54.0595 10.524 53.4409 10.524C52.9822 10.524 52.5449 10.604 52.1289 10.764C51.7129 10.924 51.2755 11.1587 50.8169 11.468L50.1289 10.06C50.6835 9.69733 51.2489 9.42533 51.8249 9.244C52.4115 9.06267 53.0249 8.972 53.6649 8.972C54.8595 8.972 55.7875 9.27067 56.4489 9.868C57.1209 10.4653 57.4569 11.3187 57.4569 12.428V15.1C57.4569 15.324 57.4942 15.484 57.5689 15.58C57.6542 15.676 57.7875 15.7347 57.9689 15.756V17.5C57.7769 17.532 57.6009 17.5587 57.4409 17.58C57.2915 17.6013 57.1635 17.612 57.0569 17.612C56.6302 17.612 56.3049 17.516 56.0809 17.324C55.8675 17.132 55.7342 16.8973 55.6809 16.62L55.6329 16.188C55.2702 16.6573 54.8169 17.02 54.2729 17.276C53.7289 17.532 53.1742 17.66 52.6089 17.66C52.0542 17.66 51.5529 17.548 51.1049 17.324C50.6675 17.0893 50.3209 16.7747 50.0649 16.38C49.8195 15.9747 49.6969 15.5213 49.6969 15.02ZM54.9129 15.452C55.0302 15.324 55.1262 15.196 55.2009 15.068C55.2755 14.94 55.3129 14.8227 55.3129 14.716V13.868C55.0569 13.7613 54.7795 13.6813 54.4809 13.628C54.1822 13.564 53.8995 13.532 53.6329 13.532C53.0782 13.532 52.6195 13.6547 52.2569 13.9C51.9049 14.1347 51.7289 14.4493 51.7289 14.844C51.7289 15.0573 51.7875 15.26 51.9049 15.452C52.0222 15.644 52.1929 15.7987 52.4169 15.916C52.6409 16.0333 52.9075 16.092 53.2169 16.092C53.5369 16.092 53.8515 16.0333 54.1609 15.916C54.4702 15.788 54.7209 15.6333 54.9129 15.452ZM67.2524 17.5H65.1084V12.796C65.1084 12.124 64.991 11.6333 64.7564 11.324C64.5217 11.0147 64.1964 10.86 63.7804 10.86C63.4924 10.86 63.199 10.9347 62.9004 11.084C62.6124 11.2333 62.351 11.4413 62.1164 11.708C61.8817 11.964 61.711 12.2627 61.6044 12.604V17.5H59.4604V9.116H61.3964V10.668C61.6097 10.3053 61.8817 10.0013 62.2124 9.756C62.543 9.5 62.9217 9.308 63.3484 9.18C63.7857 9.04133 64.2444 8.972 64.7244 8.972C65.247 8.972 65.6737 9.068 66.0044 9.26C66.3457 9.44133 66.6017 9.692 66.7724 10.012C66.9537 10.3213 67.0764 10.6733 67.1404 11.068C67.215 11.4627 67.2524 11.8627 67.2524 12.268V17.5ZM73.1684 17.5V6.14H77.9844C78.507 6.14 78.987 6.24667 79.4244 6.46C79.8617 6.67333 80.2404 6.96133 80.5604 7.324C80.891 7.68667 81.147 8.092 81.3284 8.54C81.5097 8.988 81.6004 9.44667 81.6004 9.916C81.6004 10.556 81.451 11.164 81.1524 11.74C80.8537 12.316 80.443 12.7853 79.9204 13.148C79.3977 13.5107 78.779 13.692 78.0644 13.692H75.3764V17.5H73.1684ZM75.3764 11.756H77.9364C78.203 11.756 78.443 11.6813 78.6564 11.532C78.8697 11.3827 79.0404 11.1693 79.1684 10.892C79.2964 10.604 79.3604 10.2787 79.3604 9.916C79.3604 9.52133 79.2857 9.18533 79.1364 8.908C78.9977 8.63067 78.811 8.42267 78.5764 8.284C78.3524 8.14533 78.107 8.076 77.8404 8.076H75.3764V11.756ZM90.7211 17.5H88.5771V12.796C88.5771 12.1453 88.4491 11.66 88.1931 11.34C87.9478 11.02 87.6065 10.86 87.1691 10.86C86.9131 10.86 86.6411 10.9347 86.3531 11.084C86.0651 11.2333 85.8038 11.4413 85.5691 11.708C85.3451 11.964 85.1798 12.2627 85.0731 12.604V17.5H82.9291V5.82H85.0731V10.668C85.3825 10.1347 85.8038 9.71867 86.3371 9.42C86.8705 9.12133 87.4518 8.972 88.0811 8.972C88.6251 8.972 89.0678 9.068 89.4091 9.26C89.7505 9.44133 90.0171 9.692 90.2091 10.012C90.4011 10.3213 90.5345 10.6733 90.6091 11.068C90.6838 11.452 90.7211 11.852 90.7211 12.268V17.5ZM92.5854 17.5V9.116H94.7294V17.5H92.5854ZM92.5854 7.948V5.82H94.7294V7.948H92.5854ZM96.6475 5.82H98.7915V14.812C98.7915 15.196 98.8555 15.4573 98.9835 15.596C99.1115 15.724 99.2875 15.788 99.5115 15.788C99.6822 15.788 99.8582 15.7667 100.04 15.724C100.221 15.6813 100.381 15.628 100.52 15.564L100.808 17.196C100.52 17.3347 100.184 17.4413 99.7995 17.516C99.4155 17.5907 99.0688 17.628 98.7595 17.628C98.0875 17.628 97.5648 17.452 97.1915 17.1C96.8288 16.7373 96.6475 16.2253 96.6475 15.564V5.82ZM101.742 17.5V9.116H103.886V17.5H101.742ZM101.742 7.948V5.82H103.886V7.948H101.742ZM110.844 17.66C110.193 17.66 109.617 17.516 109.116 17.228C108.625 16.9293 108.241 16.5293 107.964 16.028V20.908H105.82V9.116H107.692V10.556C108.012 10.0653 108.417 9.68133 108.908 9.404C109.398 9.116 109.958 8.972 110.588 8.972C111.153 8.972 111.67 9.084 112.14 9.308C112.62 9.532 113.036 9.84667 113.388 10.252C113.74 10.6467 114.012 11.1053 114.204 11.628C114.406 12.14 114.508 12.6947 114.508 13.292C114.508 14.1027 114.348 14.8387 114.028 15.5C113.718 16.1613 113.286 16.6893 112.732 17.084C112.188 17.468 111.558 17.66 110.844 17.66ZM110.124 15.836C110.454 15.836 110.753 15.7667 111.02 15.628C111.286 15.4893 111.516 15.3027 111.708 15.068C111.91 14.8227 112.06 14.5507 112.156 14.252C112.262 13.9427 112.316 13.6227 112.316 13.292C112.316 12.94 112.257 12.6147 112.14 12.316C112.033 12.0173 111.873 11.756 111.66 11.532C111.446 11.2973 111.196 11.116 110.908 10.988C110.63 10.86 110.326 10.796 109.996 10.796C109.793 10.796 109.585 10.8333 109.372 10.908C109.169 10.972 108.972 11.068 108.78 11.196C108.588 11.324 108.417 11.4733 108.268 11.644C108.129 11.8147 108.028 12.0013 107.964 12.204V14.172C108.092 14.4813 108.262 14.764 108.476 15.02C108.7 15.276 108.956 15.4787 109.244 15.628C109.532 15.7667 109.825 15.836 110.124 15.836ZM119.848 17.66C119.176 17.66 118.568 17.548 118.024 17.324C117.48 17.0893 117.016 16.7747 116.632 16.38C116.248 15.9747 115.95 15.516 115.736 15.004C115.534 14.4813 115.432 13.932 115.432 13.356C115.432 12.556 115.608 11.8253 115.96 11.164C116.323 10.5027 116.835 9.97467 117.496 9.58C118.168 9.17467 118.958 8.972 119.864 8.972C120.782 8.972 121.566 9.17467 122.216 9.58C122.867 9.97467 123.363 10.5027 123.704 11.164C124.056 11.8147 124.232 12.5187 124.232 13.276C124.232 13.404 124.227 13.5373 124.216 13.676C124.206 13.804 124.195 13.9107 124.184 13.996H117.704C117.747 14.4227 117.87 14.796 118.072 15.116C118.286 15.436 118.552 15.6813 118.872 15.852C119.203 16.012 119.555 16.092 119.928 16.092C120.355 16.092 120.755 15.9907 121.128 15.788C121.512 15.5747 121.774 15.2973 121.912 14.956L123.752 15.468C123.55 15.8947 123.256 16.2733 122.872 16.604C122.499 16.9347 122.056 17.196 121.544 17.388C121.032 17.5693 120.467 17.66 119.848 17.66ZM117.656 12.636H122.04C121.998 12.2093 121.875 11.8413 121.672 11.532C121.48 11.212 121.224 10.9667 120.904 10.796C120.584 10.6147 120.227 10.524 119.832 10.524C119.448 10.524 119.096 10.6147 118.776 10.796C118.467 10.9667 118.211 11.212 118.008 11.532C117.816 11.8413 117.699 12.2093 117.656 12.636Z" fill="#464646"/>
<defs>
<clipPath id="clip0_1_230">
<rect width="24" height="24" fill="white"/>
</clipPath>
</defs>
</svg>
